<svg id="visual" viewBox="0 0 1200 630" width="1200" height="630" xmlns="http://www.w3.org/2000/svg" xmlns:xlink="http://www.w3.org/1999/xlink" version="1.1"><path d="M0 102L18.2 93.5C36.3 85 72.7 68 109 67C145.3 66 181.7 81 218 79C254.3 77 290.7 58 327 54.8C363.3 51.7 399.7 64.3 436 68.5C472.3 72.7 508.7 68.3 545.2 69.3C581.7 70.3 618.3 76.7 654.8 72.5C691.3 68.3 727.7 53.7 764 57.8C800.3 62 836.7 85 873 88.2C909.3 91.3 945.7 74.7 982 70.5C1018.3 66.3 1054.7 74.7 1091 74.7C1127.3 74.7 1163.7 66.3 1181.8 62.2L1200 58L1200 0L1181.8 0C1163.7 0 1127.3 0 1091 0C1054.7 0 1018.3 0 982 0C945.7 0 909.3 0 873 0C836.7 0 800.3 0 764 0C727.7 0 691.3 0 654.8 0C618.3 0 581.7 0 545.2 0C508.7 0 472.3 0 436 0C399.7 0 363.3 0 327 0C290.7 0 254.3 0 218 0C181.7 0 145.3 0 109 0C72.7 0 36.3 0 18.2 0L0 0Z" fill="#6198ff"></path><path d="M0 165L18.2 167C36.3 169 72.7 173 109 173C145.3 173 181.7 169 218 168C254.3 167 290.7 169 327 175.3C363.3 181.7 399.7 192.3 436 187.2C472.3 182 508.7 161 545.2 162C581.7 163 618.3 186 654.8 191.2C691.3 196.3 727.7 183.7 764 178.3C800.3 173 836.7 175 873 171.8C909.3 168.7 945.7 160.3 982 154.2C1018.3 148 1054.7 144 1091 149.3C1127.3 154.7 1163.7 169.3 1181.8 176.7L1200 184L1200 56L1181.8 60.2C1163.7 64.3 1127.3 72.7 1091 72.7C1054.7 72.7 1018.3 64.3 982 68.5C945.7 72.7 909.3 89.3 873 86.2C836.7 83 800.3 60 764 55.8C727.7 51.7 691.3 66.3 654.8 70.5C618.3 74.7 581.7 68.3 545.2 67.3C508.7 66.3 472.3 70.7 436 66.5C399.7 62.3 363.3 49.7 327 52.8C290.7 56 254.3 75 218 77C181.7 79 145.3 64 109 65C72.7 66 36.3 83 18.2 91.5L0 100Z" fill="#3c80ff"></path><path d="M0 297L18.2 295C36.3 293 72.7 289 109 284.8C145.3 280.7 181.7 276.3 218 270C254.3 263.7 290.7 255.3 327 255.3C363.3 255.3 399.7 263.7 436 268.8C472.3 274 508.7 276 545.2 281.2C581.7 286.3 618.3 294.7 654.8 286.3C691.3 278 727.7 253 764 248.8C800.3 244.7 836.7 261.3 873 258.2C909.3 255 945.7 232 982 237.3C1018.3 242.7 1054.7 276.3 1091 280.5C1127.3 284.7 1163.7 259.3 1181.8 246.7L1200 234L1200 182L1181.8 174.7C1163.7 167.3 1127.3 152.7 1091 147.3C1054.7 142 1018.3 146 982 152.2C945.7 158.3 909.3 166.7 873 169.8C836.7 173 800.3 171 764 176.3C727.7 181.7 691.3 194.3 654.8 189.2C618.3 184 581.7 161 545.2 160C508.7 159 472.3 180 436 185.2C399.7 190.3 363.3 179.7 327 173.3C290.7 167 254.3 165 218 166C181.7 167 145.3 171 109 171C72.7 171 36.3 167 18.2 165L0 163Z" fill="#0066ff"></path><path d="M0 530L18.2 517.5C36.3 505 72.7 480 109 475.8C145.3 471.7 181.7 488.3 218 487.2C254.3 486 290.7 467 327 448.2C363.3 429.3 399.7 410.7 436 425.5C472.3 440.3 508.7 488.7 545.2 487.5C581.7 486.3 618.3 435.7 654.8 406.2C691.3 376.7 727.7 368.3 764 374.7C800.3 381 836.7 402 873 407.3C909.3 412.7 945.7 402.3 982 410.8C1018.3 419.3 1054.7 446.7 1091 463.3C1127.3 480 1163.7 486 1181.8 489L1200 492L1200 232L1181.8 244.7C1163.7 257.3 1127.3 282.7 1091 278.5C1054.7 274.3 1018.3 240.7 982 235.3C945.7 230 909.3 253 873 256.2C836.7 259.3 800.3 242.7 764 246.8C727.7 251 691.3 276 654.8 284.3C618.3 292.7 581.7 284.3 545.2 279.2C508.7 274 472.3 272 436 266.8C399.7 261.7 363.3 253.3 327 253.3C290.7 253.3 254.3 261.7 218 268C181.7 274.3 145.3 278.7 109 282.8C72.7 287 36.3 291 18.2 293L0 295Z" fill="#0059dd"></path><path d="M0 631L18.2 631C36.3 631 72.7 631 109 631C145.3 631 181.7 631 218 631C254.3 631 290.7 631 327 631C363.3 631 399.7 631 436 631C472.3 631 508.7 631 545.2 631C581.7 631 618.3 631 654.8 631C691.3 631 727.7 631 764 631C800.3 631 836.7 631 873 631C909.3 631 945.7 631 982 631C1018.3 631 1054.7 631 1091 631C1127.3 631 1163.7 631 1181.8 631L1200 631L1200 490L1181.8 487C1163.7 484 1127.3 478 1091 461.3C1054.7 444.7 1018.3 417.3 982 408.8C945.7 400.3 909.3 410.7 873 405.3C836.7 400 800.3 379 764 372.7C727.7 366.3 691.3 374.7 654.8 404.2C618.3 433.7 581.7 484.3 545.2 485.5C508.7 486.7 472.3 438.3 436 423.5C399.7 408.7 363.3 427.3 327 446.2C290.7 465 254.3 484 218 485.2C181.7 486.3 145.3 469.7 109 473.8C72.7 478 36.3 503 18.2 515.5L0 528Z" fill="#004cbb"></path></svg>